<svg xmlns="http://www.w3.org/2000/svg" viewBox="0 0 603.14 560.41"><defs><style>.a{fill:#5d6477;}.b{fill:#fff;}</style></defs><title>Grey DCC Logo</title><circle class="a" cx="325.17" cy="281.58" r="277.61"/><path class="b" d="M548,54.71,138.74,222.52A6.48,6.48,0,0,0,141,234.25L251.68,237c31.89-.29,47.57-2.73,56.21,2.52a14.55,14.55,0,0,0,16.81-1.36L532.09,70.19c3.5-3.19,8.26-4.43,5.43-.65L319.93,258.16a6.41,6.41,0,0,0-2.24,4.58c-.2,4.49-.35,10.6-.44,11l.43,63.09a2.23,2.23,0,0,0,4,1.81l36.81-40c30.44-31.79,43.83-31.07,71.43-4.09l34.75,35.69c34.55,36.3,34.48,24.17,41.52-22.12L554,58.48A3.9,3.9,0,0,0,548,54.71Z"/><path class="b" d="M1,457.09c47.09.13,72.78,48,103.25,57.36,66.18,20.41,169.43,11.47,209.16-136.66C275.27,491.77,126.11,488.86,91.14,431,19,311.55,40.08,443.06,1,457.09Z"/></svg>